<svg viewBox="0 0 480 480" xmlns="http://www.w3.org/2000/svg"><path d="m222.067 406.036a139376.65 139376.65 0 0 0 113.188-20.023l1.062-.239-58.221-69.24c-32.037-38.096-58.221-69.412-58.221-69.583 0-.343 60.139-165.9 60.445-166.48.103-.208 41.04 70.437 99.189 171.238a644093.906 644093.906 0 0 1 99.738 172.88l.751 1.338-184.998-.068-185.03-.036c-.032.032 112.098-19.787 112.098-19.787zm-222.068-21.117c0-.103 27.45-47.71 60.958-105.828l60.958-105.658 71.09-59.625c39.055-32.789 71.123-59.658 71.263-59.725.135-.036-.378 1.233-1.13 2.876s-35.494 76.123-77.15 165.49l-75.777 162.51-55.106.068c-30.29.027-55.106-.004-55.106-.108z" fill="#0089d6"/></svg>